<svg xmlns="http://www.w3.org/2000/svg" version="1.1" xmlns:xlink="http://www.w3.org/1999/xlink" xmlns:svgjs="http://svgjs.com/svgjs" width="1536" height="796" preserveAspectRatio="none" viewBox="0 0 1536 796"><g mask="url(&quot;#SvgjsMask2694&quot;)" fill="none"><rect width="1536" height="796" x="0" y="0" fill="url(#SvgjsLinearGradient2695)"></rect><path d="M0 0L87.21 0L0 351.67z" fill="rgba(255, 255, 255, .1)"></path><path d="M0 351.67L87.21 0L499.94 0L0 532.51z" fill="rgba(255, 255, 255, .075)"></path><path d="M0 532.51L499.94 0L675.98 0L0 536.77z" fill="rgba(255, 255, 255, .05)"></path><path d="M0 536.77L675.98 0L876.4200000000001 0L0 673.78z" fill="rgba(255, 255, 255, .025)"></path><path d="M1536 796L1141.04 796L1536 607.44z" fill="rgba(0, 0, 0, .1)"></path><path d="M1536 607.44L1141.04 796L753.7 796L1536 433.74000000000007z" fill="rgba(0, 0, 0, .075)"></path><path d="M1536 433.74L753.7 796L565.6 796L1536 260.05z" fill="rgba(0, 0, 0, .05)"></path><path d="M1536 260.04999999999995L565.6 796L439.62 796L1536 207.85999999999996z" fill="rgba(0, 0, 0, .025)"></path></g><defs><mask id="SvgjsMask2694"><rect width="1536" height="796" fill="#ffffff"></rect></mask><linearGradient x1="12.04%" y1="123.24%" x2="87.96%" y2="-23.24%" gradientUnits="userSpaceOnUse" id="SvgjsLinearGradient2695"><stop stop-color="rgba(25, 51, 140, 1)" offset="0"></stop><stop stop-color="rgba(21, 178, 213, 1)" offset="1"></stop></linearGradient></defs></svg>