<svg width="152" height="64" viewBox="0 0 152 64" fill="none" xmlns="http://www.w3.org/2000/svg">
<path d="M0.635486 37.0846C-0.0410929 33.2757 -0.158033 29.0325 0.201139 25.1735C0.727367 19.4936 3.22486 14.3983 8.20315 11.1574C12.5048 8.35089 18.0511 7.33185 23.1547 8.44277C28.4003 9.58711 33.412 13.4628 35.4083 18.3743C37.5633 23.6867 34.8654 32.5073 41.2135 35.673C41.4474 35.7899 43.7945 36.4414 43.7945 36.383C43.7862 37.4605 43.8279 38.4795 43.1179 39.4067C41.5643 41.4364 38.3485 40.4425 36.3188 41.946C34.8487 43.0318 34.3391 44.6105 34.2305 46.3312C34.1554 47.5507 33.8964 48.9122 32.8189 49.6807C31.6078 50.541 29.8787 50.399 28.5005 50.8167C26.6545 51.3679 25.7858 52.5708 24.842 54.0158C24.6248 54.3499 24.4494 54.6088 24.1236 54.8594C21.1333 57.1481 15.9713 55.536 12.9977 53.9991C8.57902 51.7188 5.17942 48.0936 2.8991 43.8003C1.74641 41.6369 1.05313 39.39 0.635486 37.0846Z" fill="#B4C3C7"/>
<path d="M39.852 36.6669C33.6876 33.5012 36.3021 24.6806 34.2139 19.3682C32.2844 14.4484 27.4147 10.5727 22.3194 9.43667C21.4006 9.22785 20.4651 9.09421 19.5212 9.03574C21.008 9.31973 22.7538 10.4307 23.7227 11.1156C27.7738 13.9723 30.5219 19.2847 31.0064 24.1627C31.424 28.3642 30.1878 33 32.6185 36.7922C34.5981 39.8827 38.2399 40.7013 41.7063 40.4006C42.3996 39.4734 42.3495 38.4544 42.3579 37.3769C42.3579 37.4437 40.0775 36.7838 39.852 36.6669Z" fill="#889DA5"/>
<g opacity="0.2">
<path opacity="0.2" d="M21.0246 55.9703C21.2585 55.3188 21.7847 54.7842 22.6033 54.6589C22.6618 54.6004 22.7119 54.5419 22.7704 54.5002C21.317 53.9656 19.4961 53.0802 19.0784 52.8797C17.4997 52.1447 15.9879 51.2593 14.6013 50.1985C9.95714 46.6485 7.26753 41.3612 6.67448 35.5894C5.90602 28.0551 7.06706 18.132 12.488 12.4521C13.9916 10.8817 15.7623 9.56199 17.7002 8.568C17.8589 8.48447 18.2515 8.25059 18.6858 8.01671C15.3029 8.19212 11.9702 9.26964 9.17197 11.1407C4.34404 14.3816 1.92172 19.4768 1.40385 25.1567C1.05303 29.0074 1.16161 33.2506 1.82149 37.0678C2.22242 39.3732 2.899 41.6285 4.00993 43.7835C6.21507 48.0769 9.52279 51.7103 13.8161 53.9823C15.7122 54.9846 18.5104 56.0204 21.0246 55.9703Z" fill="#28404E"/>
</g>
<path d="M19.02 9.6455C20.3063 9.6455 21.576 9.77915 22.8038 10.0464C25.1343 10.556 27.5065 11.7003 29.4694 13.279C31.4908 14.8994 33.0193 16.8707 33.8797 18.9923C34.5312 20.6128 34.6815 22.726 34.8402 24.9729C34.9989 27.2115 35.1576 29.5252 35.8509 31.6301C36.7029 34.2195 38.2231 36.0237 40.4784 37.1514C40.587 37.2015 40.7875 37.3017 42.0654 37.6609C42.0738 37.6609 42.0821 37.6692 42.0988 37.6692C42.0571 37.9699 41.9736 38.2038 41.8149 38.4126C41.3889 38.9723 40.5703 39.1143 39.2756 39.3064C38.0143 39.4902 36.586 39.7073 35.3414 40.6261C33.6458 41.8791 32.752 43.7083 32.585 46.2309C32.5098 47.3752 32.2843 48.0434 31.8583 48.3525C31.4156 48.6699 30.6638 48.7785 29.862 48.8871C29.2606 48.9706 28.6424 49.0625 28.0243 49.2463C25.6939 49.9479 24.583 51.4096 23.4637 53.1136L23.4553 53.122C23.2632 53.4143 23.2131 53.4895 23.1129 53.5563C22.4196 54.0909 21.459 54.3582 20.2562 54.3582C17.4831 54.3582 14.5679 52.9716 13.741 52.5456C9.81518 50.5242 6.56593 47.2332 4.34408 43.0401C3.35844 41.1691 2.67351 39.131 2.25587 36.8089C1.62941 33.284 1.47906 29.2162 1.83823 25.3405C2.20575 21.423 3.75938 16.0271 9.09684 12.5523C11.9619 10.6729 15.4867 9.6455 19.02 9.6455ZM19.02 8C15.1944 8 11.3605 9.10257 8.20308 11.1574C3.2248 14.3983 0.735658 19.4935 0.201077 25.1734C-0.158095 29.0241 -0.0495079 33.2673 0.635424 37.0845C1.04471 39.3899 1.74635 41.6452 2.88233 43.8002C5.1543 48.0936 8.56225 51.727 12.9809 53.999C14.8853 54.9846 17.6919 55.9953 20.2479 55.9953C21.6762 55.9953 23.0377 55.6779 24.1069 54.851C24.4326 54.6004 24.608 54.3331 24.8252 54.0074C25.7774 52.5623 26.6461 51.3679 28.4837 50.8082C29.8703 50.3906 31.5993 50.5409 32.8022 49.6723C33.8797 48.9038 34.1386 47.5423 34.2138 46.3228C34.3224 44.6021 34.8319 43.0234 36.302 41.9375C38.3234 40.4424 41.5476 41.428 43.1012 39.3983C43.8112 38.4711 43.7611 37.4521 43.7778 36.3745C43.7778 36.3745 43.7694 36.3745 43.7611 36.3745C43.5689 36.3745 41.4139 35.7731 41.1967 35.6646C34.8486 32.4988 37.5382 23.6783 35.3915 18.3659C33.4036 13.446 28.3835 9.57033 23.1379 8.43434C21.7931 8.14199 20.4066 8 19.02 8Z" fill="#28404E"/>
<path d="M10.3499 29.0909C13.5975 29.0909 16.2303 26.4581 16.2303 23.2105C16.2303 19.9628 13.5975 17.3301 10.3499 17.3301C7.10222 17.3301 4.46948 19.9628 4.46948 23.2105C4.46948 26.4581 7.10222 29.0909 10.3499 29.0909Z" fill="#28404E"/>
<path d="M25.059 29.0909C28.3067 29.0909 30.9394 26.4581 30.9394 23.2105C30.9394 19.9628 28.3067 17.3301 25.059 17.3301C21.8114 17.3301 19.1786 19.9628 19.1786 23.2105C19.1786 26.4581 21.8114 29.0909 25.059 29.0909Z" fill="#28404E"/>
<path d="M10.35 19.9362C8.57921 19.9779 7.15088 21.4313 7.15088 23.2105C7.15088 24.9896 8.57086 26.443 10.35 26.4848V19.9362Z" fill="#0CD780"/>
<path d="M25.0592 19.9362C23.3051 20.003 21.9019 21.4397 21.9019 23.2105C21.9019 24.9813 23.3051 26.418 25.0592 26.4848V19.9362Z" fill="#55C7AC"/>
<path d="M51.8099 34.0005C52.1941 34.4432 52.6284 34.794 53.0962 35.0279C53.564 35.2701 54.0902 35.3871 54.6749 35.3871C55.3765 35.3871 55.9445 35.195 56.3872 34.8191C56.8299 34.4348 57.0471 33.9504 57.0471 33.349C57.0471 32.781 56.9051 32.3216 56.6294 31.9791C56.3538 31.6366 55.9696 31.3443 55.4768 31.1021C54.9839 30.8598 54.4159 30.626 53.7728 30.3921C53.3885 30.2584 52.9709 30.083 52.5031 29.8575C52.0354 29.632 51.5927 29.348 51.1667 29.0055C50.7407 28.663 50.3899 28.2371 50.1142 27.7359C49.8386 27.2347 49.6966 26.6166 49.6966 25.9066C49.6966 25.088 49.9054 24.3697 50.3314 23.7432C50.7574 23.1251 51.3338 22.6407 52.0521 22.2982C52.7788 21.9557 53.5974 21.7803 54.5245 21.7803C55.435 21.7803 56.2202 21.939 56.8967 22.2648C57.5733 22.5905 58.133 22.9998 58.6007 23.4926C59.0601 23.9938 59.4276 24.5117 59.6866 25.0546L57.5817 26.2407C57.3895 25.8565 57.1473 25.5057 56.855 25.1799C56.5626 24.8542 56.2202 24.5869 55.8359 24.3864C55.4517 24.1859 55.0006 24.094 54.4828 24.094C53.7644 24.094 53.2382 24.2611 52.9041 24.5869C52.57 24.9126 52.4029 25.2969 52.4029 25.7396C52.4029 26.1321 52.5199 26.4913 52.7621 26.8004C53.0043 27.1178 53.3802 27.4101 53.8897 27.6858C54.3992 27.9614 55.0675 28.2454 55.886 28.5378C56.3371 28.6965 56.7965 28.9053 57.2559 29.1559C57.7153 29.4065 58.1413 29.7155 58.5172 30.0914C58.9014 30.4673 59.2021 30.9016 59.4276 31.3944C59.6532 31.8956 59.7701 32.4803 59.7701 33.1485C59.7701 33.8669 59.6281 34.51 59.3525 35.078C59.0768 35.646 58.6926 36.1305 58.2081 36.5147C57.7237 36.8989 57.1807 37.1996 56.571 37.4168C55.9612 37.6256 55.3348 37.7342 54.6749 37.7342C53.7644 37.7342 52.9291 37.5588 52.1607 37.1996C51.3922 36.8405 50.724 36.3644 50.156 35.7629C49.588 35.1615 49.1286 34.51 48.7945 33.8084L50.724 32.4719C51.0581 33.0399 51.4173 33.5578 51.8099 34.0005Z" fill="#FAF9F6"/>
<path d="M62.1339 42.2197V27.2932H64.5228V42.2197H62.1339ZM72.2074 35.2117C71.7563 36.0052 71.1549 36.6149 70.4115 37.0326C69.6681 37.4502 68.8495 37.659 67.9725 37.659C67.1121 37.659 66.3604 37.4419 65.7256 37.0075C65.0908 36.5732 64.5979 35.9634 64.2555 35.1615C63.913 34.368 63.7376 33.4242 63.7376 32.3383C63.7376 31.2441 63.913 30.3002 64.2555 29.5067C64.5979 28.7132 65.0908 28.1034 65.7256 27.6774C66.3604 27.2431 67.1121 27.0259 67.9725 27.0259C68.8495 27.0259 69.6597 27.2347 70.4115 27.6524C71.1549 28.07 71.7563 28.6714 72.2074 29.4649C72.6584 30.2584 72.8839 31.2107 72.8839 32.3383C72.8839 33.4576 72.6584 34.4181 72.2074 35.2117ZM70.0106 30.626C69.7349 30.1499 69.359 29.7907 68.8996 29.5484C68.4402 29.3062 67.9307 29.1893 67.3711 29.1893C66.92 29.1893 66.469 29.3062 66.0346 29.5484C65.5919 29.7907 65.2328 30.1415 64.9488 30.6093C64.6648 31.077 64.5228 31.6534 64.5228 32.3466C64.5228 33.0316 64.6648 33.6163 64.9488 34.084C65.2328 34.5518 65.6003 34.911 66.0346 35.1448C66.4773 35.3871 66.92 35.504 67.3711 35.504C67.9307 35.504 68.4319 35.3871 68.8996 35.1448C69.359 34.9026 69.7266 34.5434 70.0106 34.0673C70.2862 33.5912 70.4282 33.0149 70.4282 32.3466C70.4282 31.6784 70.2862 31.1021 70.0106 30.626Z" fill="#FAF9F6"/>
<path d="M75.5065 22.2564C75.8072 21.9808 76.1581 21.8388 76.5506 21.8388C76.9766 21.8388 77.3275 21.9808 77.6114 22.2564C77.8954 22.5321 78.0374 22.8745 78.0374 23.2838C78.0374 23.6764 77.8954 24.0189 77.6114 24.3029C77.3275 24.5869 76.9683 24.7289 76.5506 24.7289C76.1581 24.7289 75.8072 24.5869 75.5065 24.3029C75.2058 24.0189 75.0555 23.6764 75.0555 23.2838C75.0555 22.8745 75.2058 22.5321 75.5065 22.2564ZM77.7117 27.3015V37.4001H75.3896V27.3015H77.7117Z" fill="#FAF9F6"/>
<path d="M83.3334 37.3918H80.9862V27.2932H83.3334V37.3918ZM85.7223 29.4315C85.5301 29.3396 85.2879 29.2979 84.9956 29.2979C84.603 29.2979 84.2772 29.3981 84.0266 29.6069C83.776 29.8157 83.6006 30.0914 83.492 30.4506C83.3835 30.8097 83.325 31.2274 83.325 31.7118L82.5315 31.2524C82.5315 30.4506 82.6818 29.7322 82.9825 29.1141C83.2832 28.496 83.6675 27.9948 84.1436 27.6357C84.6197 27.2681 85.1125 27.0844 85.622 27.0844C85.9895 27.0844 86.332 27.1428 86.6494 27.2514C86.9752 27.36 87.2425 27.5521 87.4596 27.8361L86.3153 29.8325C86.1148 29.6487 85.9144 29.515 85.7223 29.4315Z" fill="#FAF9F6"/>
<path d="M89.4643 22.2564C89.765 21.9808 90.1158 21.8388 90.5084 21.8388C90.9344 21.8388 91.2852 21.9808 91.5692 22.2564C91.8532 22.5321 91.9952 22.8745 91.9952 23.2838C91.9952 23.6764 91.8532 24.0189 91.5692 24.3029C91.2852 24.5869 90.926 24.7289 90.5084 24.7289C90.1158 24.7289 89.765 24.5869 89.4643 24.3029C89.1636 24.0189 89.0132 23.6764 89.0132 23.2838C89.0132 22.8745 89.1636 22.5321 89.4643 22.2564ZM91.6694 27.3015V37.4001H89.3474V27.3015H91.6694Z" fill="#FAF9F6"/>
<path d="M99.2623 27.3015V29.3897H93.5322V27.3015H99.2623ZM97.575 23.785V37.3918H95.2278V23.785H97.575Z" fill="#FAF9F6"/>
<path d="M103.18 34.0005C103.564 34.4432 103.998 34.794 104.466 35.0279C104.934 35.2701 105.46 35.3871 106.045 35.3871C106.746 35.3871 107.314 35.195 107.757 34.8191C108.2 34.4348 108.417 33.9504 108.417 33.349C108.417 32.781 108.275 32.3216 107.999 31.9791C107.724 31.6366 107.339 31.3443 106.847 31.1021C106.354 30.8598 105.786 30.626 105.143 30.3921C104.758 30.2584 104.341 30.083 103.873 29.8575C103.405 29.632 102.962 29.348 102.537 29.0055C102.111 28.663 101.76 28.2371 101.484 27.7359C101.208 27.2347 101.066 26.6166 101.066 25.9066C101.066 25.088 101.275 24.3697 101.701 23.7432C102.127 23.1251 102.704 22.6407 103.422 22.2982C104.149 21.9557 104.967 21.7803 105.894 21.7803C106.805 21.7803 107.59 21.939 108.267 22.2648C108.943 22.5905 109.503 22.9998 109.971 23.4926C110.43 23.9938 110.797 24.5117 111.056 25.0546L108.951 26.2407C108.759 25.8565 108.517 25.5057 108.225 25.1799C107.932 24.8542 107.59 24.5869 107.206 24.3864C106.822 24.1859 106.37 24.094 105.853 24.094C105.134 24.094 104.608 24.2611 104.274 24.5869C103.94 24.9126 103.773 25.2969 103.773 25.7396C103.773 26.1321 103.89 26.4913 104.132 26.8004C104.374 27.1178 104.75 27.4101 105.26 27.6858C105.769 27.9614 106.437 28.2454 107.256 28.5378C107.707 28.6965 108.166 28.9053 108.626 29.1559C109.085 29.4064 109.511 29.7155 109.887 30.0914C110.271 30.4673 110.572 30.9016 110.797 31.3944C111.023 31.8956 111.14 32.4803 111.14 33.1485C111.14 33.8669 110.998 34.51 110.722 35.078C110.447 35.646 110.062 36.1305 109.578 36.5147C109.093 36.8989 108.551 37.1996 107.941 37.4168C107.331 37.6256 106.705 37.7342 106.045 37.7342C105.134 37.7342 104.299 37.5588 103.53 37.1996C102.762 36.8405 102.094 36.3644 101.526 35.7629C100.958 35.1615 100.498 34.51 100.164 33.8084L102.094 32.4719C102.428 33.0399 102.795 33.5578 103.18 34.0005Z" fill="#55C7AC"/>
<path d="M114.648 27.3015L117.02 33.3156L119.81 26.5331L122.775 33.3323L125.148 27.2932H127.712L122.993 38.1101L119.835 31.2858L116.803 38.1101L112.084 27.2932H114.648V27.3015Z" fill="#55C7AC"/>
<path d="M130.953 35.1198C131.112 35.362 131.337 35.5374 131.621 35.6544C131.905 35.7713 132.231 35.8298 132.598 35.8298C133.066 35.8298 133.492 35.7379 133.885 35.5458C134.269 35.3537 134.586 35.078 134.829 34.7021C135.071 34.3263 135.188 33.8919 135.188 33.3991L135.539 34.7189C135.539 35.362 135.355 35.8966 134.979 36.3309C134.603 36.7653 134.135 37.0827 133.576 37.2999C133.016 37.5087 132.44 37.6173 131.855 37.6173C131.229 37.6173 130.644 37.492 130.101 37.2414C129.558 36.9908 129.124 36.6233 128.806 36.1472C128.481 35.6627 128.322 35.078 128.322 34.3931C128.322 33.4158 128.664 32.6306 129.349 32.0543C130.034 31.478 131.011 31.1856 132.264 31.1856C132.941 31.1856 133.517 31.2608 134.01 31.4028C134.503 31.5531 134.904 31.7202 135.23 31.9207C135.555 32.1211 135.781 32.2965 135.906 32.4552V33.6664C135.455 33.3406 134.971 33.1068 134.461 32.9648C133.952 32.8228 133.409 32.7476 132.841 32.7476C132.34 32.7476 131.939 32.8061 131.63 32.9314C131.32 33.0566 131.095 33.2237 130.936 33.4492C130.786 33.6664 130.702 33.942 130.702 34.2595C130.711 34.5936 130.794 34.8859 130.953 35.1198ZM128.998 28.2621C129.449 27.9865 130.043 27.7108 130.769 27.4519C131.496 27.1846 132.323 27.0593 133.258 27.0593C134.094 27.0593 134.829 27.1846 135.464 27.4352C136.098 27.6858 136.599 28.0366 136.967 28.496C137.335 28.9554 137.518 29.5234 137.518 30.2V37.4001H135.188V30.6594C135.188 30.3336 135.129 30.0747 135.021 29.8659C134.912 29.657 134.762 29.49 134.57 29.3647C134.378 29.2311 134.152 29.1392 133.893 29.0807C133.626 29.0222 133.342 28.9888 133.041 28.9888C132.573 28.9888 132.131 29.0473 131.713 29.1559C131.295 29.2645 130.936 29.3981 130.636 29.5485C130.335 29.6988 130.109 29.8325 129.967 29.9327L128.998 28.2621Z" fill="#55C7AC"/>
<path d="M140.191 42.2197V27.2932H142.58V42.2197H140.191ZM150.264 35.2117C149.813 36.0052 149.212 36.6149 148.469 37.0326C147.725 37.4502 146.907 37.659 146.03 37.659C145.169 37.659 144.418 37.4419 143.783 37.0075C143.148 36.5732 142.655 35.9634 142.313 35.1615C141.97 34.368 141.795 33.4242 141.795 32.3383C141.795 31.2441 141.97 30.3002 142.313 29.5067C142.655 28.7132 143.148 28.1034 143.783 27.6774C144.418 27.2431 145.169 27.0259 146.03 27.0259C146.907 27.0259 147.717 27.2347 148.469 27.6524C149.212 28.07 149.813 28.6714 150.264 29.4649C150.716 30.2584 150.941 31.2107 150.941 32.3383C150.949 33.4576 150.724 34.4181 150.264 35.2117ZM148.076 30.626C147.8 30.1499 147.425 29.7907 146.965 29.5484C146.506 29.3062 145.996 29.1893 145.437 29.1893C144.986 29.1893 144.534 29.3062 144.1 29.5484C143.657 29.7907 143.298 30.1415 143.014 30.6093C142.73 31.077 142.588 31.6534 142.588 32.3466C142.588 33.0316 142.73 33.6163 143.014 34.084C143.298 34.5518 143.666 34.911 144.1 35.1448C144.543 35.3871 144.986 35.504 145.437 35.504C145.996 35.504 146.497 35.3871 146.965 35.1448C147.425 34.9026 147.792 34.5434 148.076 34.0673C148.352 33.5912 148.494 33.0149 148.494 32.3466C148.485 31.6784 148.352 31.1021 148.076 30.626Z" fill="#55C7AC"/>
</svg>
